<svg xmlns="http://www.w3.org/2000/svg" xmlns:xlink="http://www.w3.org/1999/xlink" width="500" zoomAndPan="magnify" viewBox="0 0 375 374.999991" height="500" preserveAspectRatio="xMidYMid meet" version="1.0"><defs><g/><clipPath id="id1"><path d="M 73 87.023438 L 301.75 87.023438 L 301.75 205.523438 L 73 205.523438 Z M 73 87.023438 " clip-rule="nonzero"/></clipPath></defs><g clip-path="url(#id1)"><path fill="#000000" d="M 187.375 119.277344 C 167.15625 119.277344 150.757812 135.667969 150.757812 155.890625 C 150.757812 176.109375 167.15625 192.5 187.375 192.5 C 207.597656 192.5 223.992188 176.109375 223.992188 155.890625 C 223.992188 135.667969 207.601562 119.277344 187.375 119.277344 Z M 211.203125 122.917969 L 212.234375 121.882812 L 213.628906 120.488281 L 222.574219 111.546875 C 222.304688 110.929688 222.078125 110.300781 221.882812 109.664062 L 214.574219 116.976562 L 212.507812 119.046875 L 213.261719 116.222656 L 213.742188 114.421875 C 208.933594 111.355469 203.628906 109.15625 198.0625 107.917969 L 194.402344 114.261719 L 180.359375 114.261719 L 176.695312 107.917969 C 171.128906 109.15625 165.828125 111.355469 161.015625 114.421875 L 161.5 116.222656 L 162.253906 119.046875 L 160.183594 116.980469 L 152.871094 109.664062 C 152.679688 110.300781 152.445312 110.933594 152.179688 111.546875 L 162.515625 121.882812 L 163.550781 122.921875 L 164.539062 121.933594 L 162.707031 115.097656 C 166.824219 112.597656 171.296875 110.742188 175.976562 109.59375 L 179.515625 115.730469 L 195.242188 115.730469 L 198.785156 109.59375 C 203.457031 110.742188 207.929688 112.597656 212.046875 115.097656 L 210.214844 121.933594 L 211.203125 122.921875 Z M 162.515625 189.894531 L 152.179688 200.230469 C 152.449219 200.84375 152.671875 201.472656 152.867188 202.113281 L 160.179688 194.800781 L 162.25 192.734375 L 161.496094 195.554688 L 161.011719 197.359375 C 165.824219 200.417969 171.125 202.625 176.695312 203.859375 L 180.355469 197.515625 L 194.398438 197.515625 L 198.058594 203.863281 C 203.628906 202.628906 208.933594 200.421875 213.742188 197.359375 L 213.261719 195.558594 L 212.503906 192.734375 L 221.882812 202.113281 C 222.074219 201.472656 222.300781 200.847656 222.570312 200.230469 L 212.234375 189.894531 L 211.203125 188.859375 L 210.214844 189.84375 L 212.042969 196.683594 C 207.929688 199.175781 203.457031 201.035156 198.78125 202.183594 L 195.238281 196.046875 L 179.511719 196.046875 L 175.972656 202.179688 C 171.292969 201.03125 166.820312 199.175781 162.703125 196.683594 L 164.535156 189.847656 L 163.546875 188.863281 Z M 154.40625 179.714844 L 153.371094 180.746094 L 151.976562 182.144531 L 143.035156 191.082031 C 142.417969 190.816406 141.792969 190.585938 141.15625 190.394531 L 148.464844 183.082031 L 150.535156 181.011719 L 147.710938 181.769531 L 145.90625 182.253906 C 142.839844 177.445312 140.640625 172.140625 139.40625 166.570312 L 145.75 162.90625 L 145.75 148.871094 L 139.40625 145.207031 C 140.640625 139.640625 142.839844 134.332031 145.910156 129.523438 L 147.707031 130.007812 L 150.527344 130.761719 L 141.148438 121.382812 C 141.785156 121.191406 142.414062 120.960938 143.03125 120.695312 L 151.972656 129.636719 L 153.371094 131.03125 L 154.40625 132.066406 L 153.417969 133.054688 L 146.578125 131.21875 C 144.082031 135.339844 142.222656 139.8125 141.074219 144.484375 L 147.210938 148.027344 L 147.210938 163.753906 L 141.074219 167.296875 C 142.222656 171.976562 144.078125 176.445312 146.578125 180.566406 L 153.417969 178.734375 L 154.40625 179.71875 Z M 118.980469 203.140625 C 118.996094 203.082031 119.007812 203.023438 119.027344 202.96875 C 119.007812 203.023438 118.992188 203.082031 118.980469 203.140625 Z M 118.941406 203.320312 C 118.953125 203.265625 118.96875 203.207031 118.980469 203.148438 C 118.96875 203.207031 118.953125 203.265625 118.941406 203.320312 Z M 118.90625 203.503906 C 118.914062 203.445312 118.925781 203.382812 118.941406 203.324219 C 118.925781 203.382812 118.914062 203.445312 118.90625 203.503906 Z M 118.863281 203.679688 C 118.878906 203.621094 118.890625 203.566406 118.898438 203.507812 C 118.890625 203.566406 118.878906 203.621094 118.863281 203.679688 Z M 118.832031 203.863281 C 118.839844 203.804688 118.851562 203.746094 118.863281 203.6875 C 118.851562 203.746094 118.839844 203.804688 118.832031 203.863281 Z M 118.796875 204.046875 C 118.808594 203.988281 118.816406 203.929688 118.828125 203.871094 C 118.820312 203.929688 118.8125 203.988281 118.796875 204.046875 Z M 118.761719 204.226562 C 118.769531 204.167969 118.785156 204.113281 118.796875 204.054688 C 118.785156 204.113281 118.769531 204.167969 118.761719 204.226562 Z M 118.734375 204.410156 C 118.742188 204.351562 118.753906 204.296875 118.761719 204.238281 C 118.753906 204.296875 118.742188 204.351562 118.734375 204.410156 Z M 118.707031 204.589844 C 118.714844 204.535156 118.726562 204.476562 118.730469 204.421875 C 118.726562 204.476562 118.714844 204.535156 118.707031 204.589844 Z M 118.679688 204.773438 C 118.6875 204.71875 118.699219 204.660156 118.703125 204.601562 C 118.699219 204.660156 118.691406 204.71875 118.679688 204.773438 Z M 118.65625 204.960938 C 118.664062 204.902344 118.667969 204.84375 118.679688 204.785156 C 118.667969 204.84375 118.660156 204.902344 118.65625 204.960938 Z M 118.632812 205.140625 C 118.636719 205.082031 118.644531 205.023438 118.65625 204.964844 C 118.648438 205.023438 118.640625 205.082031 118.632812 205.140625 Z M 118.609375 205.324219 C 118.617188 205.269531 118.621094 205.210938 118.632812 205.152344 C 118.625 205.210938 118.617188 205.269531 118.609375 205.324219 Z M 118.589844 205.515625 C 118.59375 205.453125 118.601562 205.394531 118.609375 205.335938 C 118.605469 205.394531 118.597656 205.453125 118.589844 205.515625 Z M 146.230469 202.027344 L 146.125 201.34375 L 124.347656 202.589844 L 124.792969 205.421875 L 124.113281 201.117188 L 127.996094 199.136719 L 129.976562 195.253906 L 134.28125 195.9375 L 138.167969 193.957031 L 141.242188 197.042969 L 145.546875 197.722656 Z M 256.148438 205.335938 C 256.15625 205.394531 256.160156 205.453125 256.164062 205.515625 C 256.160156 205.453125 256.152344 205.394531 256.148438 205.335938 Z M 256.105469 204.96875 C 256.117188 205.085938 256.132812 205.207031 256.148438 205.324219 C 256.136719 205.207031 256.121094 205.085938 256.105469 204.96875 Z M 256.082031 204.78125 C 256.085938 204.84375 256.09375 204.902344 256.105469 204.960938 C 256.09375 204.902344 256.085938 204.84375 256.082031 204.78125 Z M 256.054688 204.601562 C 256.066406 204.660156 256.074219 204.71875 256.082031 204.777344 C 256.074219 204.71875 256.066406 204.660156 256.054688 204.601562 Z M 256.023438 204.421875 C 256.035156 204.476562 256.046875 204.535156 256.054688 204.59375 C 256.046875 204.535156 256.039062 204.476562 256.023438 204.421875 Z M 255.996094 204.238281 C 256.003906 204.296875 256.019531 204.351562 256.023438 204.410156 C 256.015625 204.351562 256.003906 204.296875 255.996094 204.238281 Z M 255.964844 204.054688 C 255.980469 204.113281 255.988281 204.167969 255.996094 204.226562 C 255.984375 204.167969 255.980469 204.113281 255.964844 204.054688 Z M 255.933594 203.871094 C 255.941406 203.925781 255.957031 203.984375 255.964844 204.046875 Z M 255.898438 203.695312 C 255.910156 203.746094 255.921875 203.808594 255.933594 203.871094 C 255.921875 203.808594 255.910156 203.746094 255.898438 203.695312 Z M 255.859375 203.511719 C 255.871094 203.566406 255.882812 203.625 255.898438 203.683594 C 255.882812 203.628906 255.871094 203.570312 255.859375 203.511719 Z M 255.820312 203.324219 C 255.832031 203.382812 255.847656 203.441406 255.855469 203.496094 C 255.84375 203.441406 255.832031 203.382812 255.820312 203.324219 Z M 255.777344 203.148438 C 255.789062 203.207031 255.804688 203.265625 255.820312 203.320312 C 255.804688 203.265625 255.792969 203.207031 255.777344 203.148438 Z M 225.445312 205.105469 L 225.652344 205.507812 L 301.65625 205.523438 L 255.714844 202.890625 C 255.734375 202.972656 255.757812 203.058594 255.777344 203.136719 C 255.050781 200.078125 253.5 197.175781 251.105469 194.789062 C 246.804688 190.484375 240.816406 188.882812 235.257812 189.988281 L 229.113281 183.839844 L 229.492188 183.941406 C 233.09375 178.546875 235.6875 172.421875 237.003906 165.835938 L 230.472656 162.066406 L 230.472656 149.71875 L 237.003906 145.949219 C 235.691406 139.359375 233.097656 133.234375 229.496094 127.839844 L 229.121094 127.941406 L 235.265625 121.796875 C 240.820312 122.898438 246.804688 121.296875 251.113281 116.992188 C 255.367188 112.738281 256.976562 106.84375 255.953125 101.347656 L 243.503906 113.796875 L 232.441406 110.835938 L 229.480469 99.773438 L 241.929688 87.324219 C 236.429688 86.300781 230.539062 87.910156 226.289062 92.164062 C 221.980469 96.472656 220.375 102.457031 221.480469 108.015625 L 215.335938 114.160156 L 215.4375 113.785156 C 210.042969 110.183594 203.914062 107.589844 197.328125 106.277344 L 193.558594 112.808594 L 181.210938 112.808594 L 177.441406 106.277344 C 170.855469 107.589844 164.730469 110.183594 159.332031 113.785156 L 159.433594 114.164062 L 153.289062 108.015625 C 154.390625 102.460938 152.789062 96.472656 148.484375 92.171875 C 144.234375 87.914062 138.339844 86.304688 132.839844 87.328125 L 134.414062 88.898438 L 145.289062 99.773438 L 142.328125 110.835938 L 131.265625 113.796875 L 118.816406 101.347656 C 117.792969 106.84375 119.402344 112.738281 123.664062 116.992188 C 127.964844 121.300781 133.949219 122.898438 139.507812 121.796875 L 145.652344 127.941406 L 145.277344 127.839844 C 141.675781 133.238281 139.082031 139.363281 137.773438 145.949219 L 144.300781 149.71875 L 144.300781 162.066406 L 137.765625 165.839844 C 139.082031 172.425781 141.671875 178.550781 145.273438 183.945312 L 145.65625 183.84375 L 139.507812 189.988281 C 133.953125 188.882812 127.964844 190.484375 123.664062 194.789062 C 121.320312 197.132812 119.777344 199.96875 119.039062 202.964844 C 119.046875 202.941406 119.050781 202.914062 119.058594 202.894531 L 73.113281 205.523438 L 149.121094 205.511719 L 149.324219 205.109375 L 149.113281 205.515625 L 153.546875 205.515625 C 153.492188 204.929688 153.402344 204.347656 153.292969 203.769531 L 159.433594 197.625 L 159.332031 198.003906 C 164.730469 201.605469 170.855469 204.199219 177.441406 205.511719 L 181.210938 198.980469 L 193.558594 198.980469 L 197.328125 205.511719 C 203.917969 204.195312 210.046875 201.605469 215.4375 198.003906 L 215.335938 197.625 L 221.472656 203.769531 C 221.363281 204.347656 221.277344 204.929688 221.222656 205.511719 L 225.65625 205.511719 L 225.449219 205.105469 Z M 250.410156 202.589844 L 228.640625 201.339844 L 229.210938 197.722656 L 233.511719 197.039062 L 236.597656 193.953125 L 240.476562 195.933594 L 244.78125 195.253906 L 246.757812 199.132812 L 250.644531 201.113281 Z M 231.726562 120.695312 C 232.347656 120.960938 232.972656 121.191406 233.609375 121.378906 L 226.300781 128.695312 L 224.226562 130.761719 L 227.050781 130.007812 L 228.851562 129.523438 C 231.914062 134.332031 234.121094 139.636719 235.355469 145.203125 L 229.007812 148.867188 L 229.007812 162.90625 L 235.355469 166.566406 C 234.117188 172.132812 231.914062 177.441406 228.847656 182.25 L 224.226562 181.007812 L 226.289062 183.078125 L 233.605469 190.390625 C 232.964844 190.582031 232.339844 190.8125 231.722656 191.078125 L 220.351562 179.707031 L 220.464844 179.59375 L 221.34375 178.722656 L 228.175781 180.554688 C 230.671875 176.433594 232.53125 171.964844 233.679688 167.289062 L 227.542969 163.746094 L 227.542969 148.019531 L 233.679688 144.476562 C 232.535156 139.800781 230.675781 135.324219 228.179688 131.210938 L 221.347656 133.042969 L 220.359375 132.054688 L 221.390625 131.019531 L 231.726562 120.683594 Z M 231.726562 120.695312 " fill-opacity="1" fill-rule="evenodd"/></g><path fill="#737373" d="M 177.085938 136.164062 L 162.445312 150.804688 L 172.332031 160.695312 L 173.039062 159.984375 C 173.007812 157.65625 174.085938 155.117188 177.738281 151.460938 C 181.394531 147.804688 183.933594 146.730469 186.261719 146.757812 L 186.96875 146.046875 L 177.082031 136.164062 Z M 173.421875 147.132812 C 174.339844 146.214844 175.835938 146.214844 176.753906 147.132812 C 177.667969 148.054688 177.667969 149.546875 176.753906 150.46875 C 175.832031 151.386719 174.339844 151.386719 173.421875 150.46875 C 172.5 149.546875 172.5 148.054688 173.421875 147.132812 Z M 173.421875 147.132812 " fill-opacity="1" fill-rule="evenodd"/><path fill="#737373" d="M 161.570312 149.929688 L 176.214844 135.285156 L 175.421875 134.496094 L 160.78125 149.136719 Z M 161.570312 149.929688 " fill-opacity="1" fill-rule="evenodd"/><path fill="#737373" d="M 159.898438 148.261719 L 174.550781 133.617188 L 173.367188 132.4375 L 158.722656 147.082031 Z M 159.898438 148.261719 " fill-opacity="1" fill-rule="evenodd"/><path fill="#737373" d="M 178.238281 151.957031 C 177.683594 152.519531 177.214844 153.03125 176.792969 153.511719 L 183.285156 160.300781 L 186.65625 157.078125 L 179.796875 150.511719 C 179.304688 150.929688 178.792969 151.40625 178.238281 151.957031 Z M 178.238281 151.957031 " fill-opacity="1" fill-rule="evenodd"/><path fill="#737373" d="M 194.949219 150.511719 L 176.113281 168.535156 C 176.941406 168.898438 177.710938 169.402344 178.386719 170.078125 C 179.058594 170.75 179.570312 171.523438 179.929688 172.351562 L 197.957031 153.511719 C 197.535156 153.027344 197.0625 152.519531 196.503906 151.957031 C 195.949219 151.40625 195.4375 150.929688 194.953125 150.511719 Z M 194.949219 150.511719 " fill-opacity="1" fill-rule="evenodd"/><path fill="#737373" d="M 191.464844 161.683594 L 188.039062 165.265625 L 194.820312 172.347656 C 195.175781 171.519531 195.683594 170.75 196.355469 170.074219 C 197.023438 169.398438 197.804688 168.894531 198.628906 168.535156 Z M 191.464844 161.683594 " fill-opacity="1" fill-rule="evenodd"/><path fill="#737373" d="M 196.996094 151.460938 C 200.652344 155.117188 201.730469 157.65625 201.699219 159.984375 L 202.40625 160.695312 L 212.292969 150.804688 L 197.652344 136.164062 L 187.765625 146.046875 L 188.472656 146.757812 C 190.804688 146.730469 193.34375 147.804688 196.996094 151.460938 Z M 201.328125 150.46875 C 200.402344 151.386719 198.910156 151.386719 197.996094 150.46875 C 197.070312 149.546875 197.070312 148.054688 197.996094 147.132812 C 198.910156 146.214844 200.402344 146.214844 201.328125 147.132812 C 202.242188 148.054688 202.242188 149.546875 201.328125 150.46875 Z M 201.328125 150.46875 " fill-opacity="1" fill-rule="evenodd"/><path fill="#737373" d="M 198.527344 135.285156 L 213.175781 149.929688 L 213.960938 149.136719 L 199.324219 134.496094 Z M 198.527344 135.285156 " fill-opacity="1" fill-rule="evenodd"/><path fill="#737373" d="M 200.199219 133.617188 L 214.84375 148.261719 L 216.027344 147.082031 L 201.375 132.4375 Z M 200.199219 133.617188 " fill-opacity="1" fill-rule="evenodd"/><path fill="#737373" d="M 205.386719 169.832031 C 202.792969 168.011719 199.183594 168.257812 196.863281 170.578125 C 195.558594 171.886719 194.910156 173.59375 194.914062 175.304688 C 194.910156 176.660156 195.304688 178.019531 196.121094 179.175781 C 195.839844 179.640625 195.886719 180.25 196.285156 180.644531 C 196.683594 181.046875 197.292969 181.101562 197.757812 180.816406 C 200.355469 182.640625 203.957031 182.402344 206.28125 180.074219 C 207.59375 178.769531 208.238281 177.058594 208.226562 175.347656 C 208.234375 173.992188 207.835938 172.636719 207.027344 171.472656 C 207.3125 171.015625 207.253906 170.410156 206.859375 170.011719 C 206.464844 169.605469 205.851562 169.554688 205.390625 169.835938 Z M 198.320312 172.039062 C 200.121094 170.242188 203.027344 170.242188 204.824219 172.039062 C 205.519531 172.730469 205.941406 173.59375 206.101562 174.488281 L 206.085938 174.492188 C 206.128906 174.710938 206.152344 174.9375 206.167969 175.160156 C 206.167969 175.324219 206.167969 175.488281 206.152344 175.648438 L 206.15625 175.648438 C 206.09375 176.726562 205.644531 177.789062 204.824219 178.609375 C 203.027344 180.40625 200.113281 180.40625 198.320312 178.613281 C 197.628906 177.921875 197.199219 177.058594 197.050781 176.164062 L 197.066406 176.164062 C 197.011719 175.9375 196.992188 175.714844 196.980469 175.488281 C 196.980469 175.324219 196.980469 175.160156 196.996094 174.996094 L 196.988281 174.996094 C 197.054688 173.921875 197.5 172.863281 198.324219 172.035156 Z M 198.320312 172.039062 " fill-opacity="1" fill-rule="evenodd"/><path fill="#737373" d="M 177.886719 170.578125 C 175.558594 168.257812 171.953125 168.011719 169.355469 169.832031 C 168.894531 169.550781 168.289062 169.605469 167.890625 170.007812 C 167.488281 170.40625 167.4375 171.015625 167.71875 171.46875 C 166.90625 172.632812 166.507812 173.992188 166.511719 175.34375 C 166.511719 177.054688 167.15625 178.769531 168.460938 180.070312 C 170.785156 182.394531 174.386719 182.636719 176.992188 180.8125 C 177.445312 181.101562 178.0625 181.046875 178.457031 180.640625 C 178.855469 180.246094 178.910156 179.636719 178.628906 179.171875 C 179.4375 178.015625 179.835938 176.660156 179.828125 175.300781 C 179.835938 173.589844 179.191406 171.882812 177.886719 170.578125 Z M 169.917969 172.039062 C 171.714844 170.242188 174.625 170.242188 176.425781 172.039062 C 177.246094 172.863281 177.695312 173.921875 177.757812 175 L 177.753906 175 C 177.765625 175.164062 177.773438 175.328125 177.765625 175.488281 C 177.757812 175.714844 177.730469 175.9375 177.683594 176.164062 L 177.691406 176.164062 C 177.542969 177.0625 177.117188 177.925781 176.421875 178.617188 C 174.625 180.410156 171.710938 180.410156 169.914062 178.613281 C 169.089844 177.792969 168.644531 176.730469 168.582031 175.652344 L 168.585938 175.652344 C 168.570312 175.488281 168.570312 175.328125 168.570312 175.164062 C 168.585938 174.9375 168.613281 174.714844 168.652344 174.496094 L 168.644531 174.492188 C 168.804688 173.597656 169.21875 172.734375 169.914062 172.042969 Z M 169.917969 172.039062 " fill-opacity="1" fill-rule="evenodd"/><g fill="#000000" fill-opacity="1"><g transform="translate(89.952918, 251.142596)"><g><path d="M 1.039062 -29.027344 L 1.039062 -23.585938 L 3.363281 -23.585938 L 3.363281 -5.480469 L 1.039062 -5.480469 L 1.039062 0 L 14.410156 0 L 14.410156 -5.480469 L 11.875 -5.480469 L 11.875 -11.917969 L 15.03125 -11.917969 C 20.972656 -11.917969 25.953125 -14.660156 25.953125 -20.140625 C 25.953125 -24.875 24.128906 -29.027344 14.492188 -29.027344 Z M 11.875 -23.628906 L 13.953125 -23.628906 C 16.363281 -23.628906 17.816406 -22.300781 17.816406 -19.851562 C 17.816406 -17.648438 16.152344 -16.402344 13.746094 -16.402344 L 11.875 -16.402344 Z M 11.875 -23.628906 "/></g></g></g><g fill="#000000" fill-opacity="1"><g transform="translate(116.525411, 251.142596)"><g><path d="M 1.039062 -29.027344 L 1.039062 -23.546875 L 3.65625 -23.546875 L 3.65625 -5.523438 L 1.039062 -5.523438 L 1.039062 0 L 14.824219 0 L 14.824219 -5.523438 L 12.25 -5.523438 L 12.25 -23.546875 L 14.824219 -23.546875 L 14.824219 -29.027344 Z M 1.039062 -29.027344 "/></g></g></g><g fill="#000000" fill-opacity="1"><g transform="translate(132.385869, 251.142596)"><g><path d="M 1.039062 0 L 8.304688 0 L 8.761719 -3.199219 C 10.339844 -1.328125 13.246094 0.621094 17.441406 0.621094 C 22.382812 0.621094 28.445312 -1.703125 28.445312 -8.179688 C 28.445312 -17.941406 12 -16.941406 12 -21.21875 C 12 -22.675781 13.664062 -23.421875 14.867188 -23.421875 C 17.773438 -23.421875 20.183594 -21.675781 20.183594 -18.605469 L 27.699219 -18.605469 L 27.699219 -29.027344 L 20.554688 -29.027344 L 20.140625 -25.539062 C 18.480469 -28.652344 14.949219 -29.773438 11.460938 -29.773438 C 7.390625 -29.773438 1.578125 -26.992188 1.578125 -20.847656 C 1.578125 -10.257812 17.523438 -11.628906 17.523438 -8.386719 C 17.523438 -6.644531 15.449219 -6.3125 13.996094 -6.3125 C 12.25 -6.394531 8.761719 -6.976562 8.761719 -10.464844 L 1.039062 -10.464844 Z M 1.039062 0 "/></g></g></g><g fill="#000000" fill-opacity="1"><g transform="translate(161.864726, 251.142596)"><g><path d="M 28.488281 -29.027344 L 0.621094 -29.027344 L 0.621094 -18.230469 L 6.726562 -18.230469 L 6.726562 -23.546875 L 10.296875 -23.546875 L 10.296875 -5.523438 L 6.894531 -5.523438 L 6.894531 0 L 22.339844 0 L 22.339844 -5.523438 L 18.894531 -5.523438 L 18.894531 -23.546875 L 22.382812 -23.546875 L 22.382812 -18.230469 L 28.488281 -18.230469 Z M 28.488281 -29.027344 "/></g></g></g><g fill="#000000" fill-opacity="1"><g transform="translate(190.96991, 251.142596)"><g><path d="M 15.488281 0.746094 C 24.875 0.746094 30.109375 -4.984375 30.109375 -14.367188 C 30.109375 -23.710938 25.375 -29.816406 15.199219 -29.816406 C 6.601562 -29.816406 0.621094 -23.628906 0.621094 -14.660156 C 0.621094 -4.277344 6.808594 0.746094 15.488281 0.746094 Z M 15.488281 -5.773438 C 12.832031 -5.773438 10.878906 -9.21875 10.878906 -14.660156 C 10.878906 -19.808594 12.625 -23.464844 15.15625 -23.421875 C 18.355469 -23.421875 19.726562 -19.394531 19.726562 -14.367188 C 19.726562 -9.21875 18.105469 -5.773438 15.488281 -5.773438 Z M 15.488281 -5.773438 "/></g></g></g><g fill="#000000" fill-opacity="1"><g transform="translate(221.694353, 251.142596)"><g><path d="M 32.847656 -23.671875 L 32.847656 -29.027344 L 20.347656 -29.027344 L 20.347656 -23.671875 L 23.171875 -23.671875 L 23.171875 -13.789062 L 13 -29.027344 L 1.078125 -29.027344 L 1.078125 -23.671875 L 3.488281 -23.671875 L 3.488281 -5.355469 L 1.039062 -5.355469 L 1.039062 0 L 13.789062 0 L 13.789062 -5.355469 L 10.589844 -5.355469 L 10.589844 -15.820312 L 21.179688 0 L 30.109375 0 L 30.109375 -23.671875 Z M 32.847656 -23.671875 "/></g></g></g><g fill="#000000" fill-opacity="1"><g transform="translate(255.574287, 251.142596)"><g><path d="M 1.039062 0 L 8.304688 0 L 8.761719 -3.199219 C 10.339844 -1.328125 13.246094 0.621094 17.441406 0.621094 C 22.382812 0.621094 28.445312 -1.703125 28.445312 -8.179688 C 28.445312 -17.941406 12 -16.941406 12 -21.21875 C 12 -22.675781 13.664062 -23.421875 14.867188 -23.421875 C 17.773438 -23.421875 20.183594 -21.675781 20.183594 -18.605469 L 27.699219 -18.605469 L 27.699219 -29.027344 L 20.554688 -29.027344 L 20.140625 -25.539062 C 18.480469 -28.652344 14.949219 -29.773438 11.460938 -29.773438 C 7.390625 -29.773438 1.578125 -26.992188 1.578125 -20.847656 C 1.578125 -10.257812 17.523438 -11.628906 17.523438 -8.386719 C 17.523438 -6.644531 15.449219 -6.3125 13.996094 -6.3125 C 12.25 -6.394531 8.761719 -6.976562 8.761719 -10.464844 L 1.039062 -10.464844 Z M 1.039062 0 "/></g></g></g><g fill="#737373" fill-opacity="1"><g transform="translate(141.572411, 282.86084)"><g><path d="M 9.375 -6.859375 C 9.894531 -6.546875 10.289062 -6.144531 10.5625 -5.65625 C 10.84375 -5.164062 10.984375 -4.601562 10.984375 -3.96875 C 10.984375 -3.363281 10.835938 -2.800781 10.546875 -2.28125 C 10.265625 -1.757812 9.859375 -1.300781 9.328125 -0.90625 C 8.847656 -0.539062 8.304688 -0.257812 7.703125 -0.0625 C 7.097656 0.125 6.457031 0.226562 5.78125 0.25 C 5.101562 0.25 4.457031 0.15625 3.84375 -0.03125 C 3.226562 -0.21875 2.679688 -0.503906 2.203125 -0.890625 C 1.484375 -1.421875 0.992188 -2.070312 0.734375 -2.84375 L 3.375 -4.0625 C 3.375 -3.9375 3.414062 -3.78125 3.5 -3.59375 C 3.582031 -3.40625 3.71875 -3.222656 3.90625 -3.046875 C 4.09375 -2.867188 4.335938 -2.71875 4.640625 -2.59375 C 4.941406 -2.46875 5.3125 -2.40625 5.75 -2.40625 C 6.101562 -2.40625 6.414062 -2.445312 6.6875 -2.53125 C 6.957031 -2.625 7.179688 -2.734375 7.359375 -2.859375 C 7.546875 -2.992188 7.6875 -3.144531 7.78125 -3.3125 C 7.875 -3.488281 7.921875 -3.664062 7.921875 -3.84375 C 7.921875 -4.039062 7.851562 -4.226562 7.71875 -4.40625 C 7.59375 -4.582031 7.390625 -4.71875 7.109375 -4.8125 C 6.609375 -4.988281 6.078125 -5.132812 5.515625 -5.25 C 4.960938 -5.375 4.421875 -5.523438 3.890625 -5.703125 C 3.367188 -5.890625 2.878906 -6.132812 2.421875 -6.4375 C 1.972656 -6.738281 1.617188 -7.15625 1.359375 -7.6875 C 1.117188 -8.164062 1 -8.675781 1 -9.21875 C 1 -9.820312 1.140625 -10.40625 1.421875 -10.96875 C 1.703125 -11.53125 2.085938 -12.003906 2.578125 -12.390625 C 3.035156 -12.753906 3.550781 -13.035156 4.125 -13.234375 C 4.707031 -13.429688 5.320312 -13.53125 5.96875 -13.53125 C 6.601562 -13.53125 7.210938 -13.4375 7.796875 -13.25 C 8.378906 -13.0625 8.90625 -12.785156 9.375 -12.421875 C 9.820312 -12.078125 10.175781 -11.679688 10.4375 -11.234375 L 8.296875 -9.765625 C 8.035156 -10.128906 7.707031 -10.421875 7.3125 -10.640625 C 6.914062 -10.859375 6.472656 -10.96875 5.984375 -10.96875 C 5.304688 -10.96875 4.78125 -10.816406 4.40625 -10.515625 C 4.039062 -10.210938 3.859375 -9.816406 3.859375 -9.328125 C 3.859375 -9.109375 3.960938 -8.910156 4.171875 -8.734375 C 4.378906 -8.554688 4.644531 -8.394531 4.96875 -8.25 C 5.300781 -8.113281 5.675781 -7.992188 6.09375 -7.890625 C 6.507812 -7.785156 6.921875 -7.675781 7.328125 -7.5625 C 7.734375 -7.457031 8.117188 -7.347656 8.484375 -7.234375 C 8.847656 -7.128906 9.144531 -7.003906 9.375 -6.859375 Z M 9.375 -6.859375 "/></g></g></g><g fill="#737373" fill-opacity="1"><g transform="translate(153.252556, 282.86084)"><g><path d="M 0.90625 -13.34375 L 9.234375 -13.34375 L 9.234375 -10.734375 L 3.765625 -10.734375 L 3.765625 -8.328125 L 8.578125 -8.328125 L 8.578125 -5.734375 L 3.765625 -5.734375 L 3.765625 -2.578125 L 9.234375 -2.578125 L 9.234375 0 L 0.90625 0 Z M 0.90625 -13.34375 "/></g></g></g><g fill="#737373" fill-opacity="1"><g transform="translate(163.48444, 282.86084)"><g><path d="M 10.484375 -9.375 C 10.484375 -8.945312 10.421875 -8.539062 10.296875 -8.15625 C 10.179688 -7.769531 10.015625 -7.414062 9.796875 -7.09375 C 9.585938 -6.78125 9.332031 -6.5 9.03125 -6.25 C 8.726562 -6.007812 8.398438 -5.8125 8.046875 -5.65625 L 12.46875 0 L 9.140625 0 L 5.015625 -5.375 L 3.75 -5.375 L 3.75 0 L 0.890625 0 L 0.890625 -13.34375 L 6.640625 -13.34375 C 7.171875 -13.34375 7.671875 -13.238281 8.140625 -13.03125 C 8.609375 -12.820312 9.015625 -12.535156 9.359375 -12.171875 C 9.703125 -11.816406 9.972656 -11.398438 10.171875 -10.921875 C 10.378906 -10.441406 10.484375 -9.925781 10.484375 -9.375 Z M 6.28125 -7.96875 C 6.644531 -7.96875 6.957031 -8.101562 7.21875 -8.375 C 7.488281 -8.644531 7.625 -8.976562 7.625 -9.375 C 7.625 -9.75 7.488281 -10.066406 7.21875 -10.328125 C 6.957031 -10.597656 6.644531 -10.734375 6.28125 -10.734375 L 3.75 -10.734375 L 3.75 -7.96875 Z M 6.28125 -7.96875 "/></g></g></g><g fill="#737373" fill-opacity="1"><g transform="translate(176.499983, 282.86084)"><g><path d="M 11.65625 -13.34375 L 14.765625 -13.34375 L 9.140625 0 L 6 0 L 0.390625 -13.34375 L 3.5 -13.34375 L 7.578125 -3.375 Z M 11.65625 -13.34375 "/></g></g></g><g fill="#737373" fill-opacity="1"><g transform="translate(191.753749, 282.86084)"><g><path d="M 5.734375 -13.34375 L 5.734375 -10.9375 L 4.734375 -10.9375 L 4.734375 -2.390625 L 5.734375 -2.390625 L 5.734375 0 L 0.890625 0 L 0.890625 -2.390625 L 1.875 -2.390625 L 1.875 -10.9375 L 0.890625 -10.9375 L 0.890625 -13.34375 Z M 5.734375 -13.34375 "/></g></g></g><g fill="#737373" fill-opacity="1"><g transform="translate(198.449624, 282.86084)"><g><path d="M 7.171875 -2.59375 C 7.773438 -2.59375 8.363281 -2.726562 8.9375 -3 C 9.507812 -3.28125 10.09375 -3.75 10.6875 -4.40625 L 12.53125 -2.65625 C 11.789062 -1.695312 10.945312 -0.972656 10 -0.484375 C 9.050781 0.00390625 8.078125 0.25 7.078125 0.25 C 6.171875 0.25 5.320312 0.0664062 4.53125 -0.296875 C 3.738281 -0.671875 3.050781 -1.171875 2.46875 -1.796875 C 1.882812 -2.429688 1.425781 -3.164062 1.09375 -4 C 0.769531 -4.832031 0.609375 -5.71875 0.609375 -6.65625 C 0.609375 -7.601562 0.78125 -8.488281 1.125 -9.3125 C 1.46875 -10.132812 1.929688 -10.859375 2.515625 -11.484375 C 3.109375 -12.117188 3.804688 -12.617188 4.609375 -12.984375 C 5.410156 -13.347656 6.265625 -13.53125 7.171875 -13.53125 C 8.003906 -13.53125 8.800781 -13.367188 9.5625 -13.046875 C 10.320312 -12.734375 11.066406 -12.21875 11.796875 -11.5 L 10.140625 -9.484375 C 9.609375 -9.972656 9.109375 -10.300781 8.640625 -10.46875 C 8.171875 -10.632812 7.679688 -10.71875 7.171875 -10.71875 C 6.648438 -10.71875 6.160156 -10.609375 5.703125 -10.390625 C 5.242188 -10.179688 4.84375 -9.894531 4.5 -9.53125 C 4.164062 -9.175781 3.898438 -8.75 3.703125 -8.25 C 3.515625 -7.75 3.421875 -7.21875 3.421875 -6.65625 C 3.421875 -6.09375 3.515625 -5.566406 3.703125 -5.078125 C 3.898438 -4.585938 4.164062 -4.15625 4.5 -3.78125 C 4.84375 -3.414062 5.242188 -3.125 5.703125 -2.90625 C 6.160156 -2.695312 6.648438 -2.59375 7.171875 -2.59375 Z M 7.171875 -2.59375 "/></g></g></g><g fill="#737373" fill-opacity="1"><g transform="translate(211.615633, 282.86084)"><g><path d="M 0.90625 -13.34375 L 9.234375 -13.34375 L 9.234375 -10.734375 L 3.765625 -10.734375 L 3.765625 -8.328125 L 8.578125 -8.328125 L 8.578125 -5.734375 L 3.765625 -5.734375 L 3.765625 -2.578125 L 9.234375 -2.578125 L 9.234375 0 L 0.90625 0 Z M 0.90625 -13.34375 "/></g></g></g><g fill="#737373" fill-opacity="1"><g transform="translate(221.847514, 282.86084)"><g><path d="M 9.375 -6.859375 C 9.894531 -6.546875 10.289062 -6.144531 10.5625 -5.65625 C 10.84375 -5.164062 10.984375 -4.601562 10.984375 -3.96875 C 10.984375 -3.363281 10.835938 -2.800781 10.546875 -2.28125 C 10.265625 -1.757812 9.859375 -1.300781 9.328125 -0.90625 C 8.847656 -0.539062 8.304688 -0.257812 7.703125 -0.0625 C 7.097656 0.125 6.457031 0.226562 5.78125 0.25 C 5.101562 0.25 4.457031 0.15625 3.84375 -0.03125 C 3.226562 -0.21875 2.679688 -0.503906 2.203125 -0.890625 C 1.484375 -1.421875 0.992188 -2.070312 0.734375 -2.84375 L 3.375 -4.0625 C 3.375 -3.9375 3.414062 -3.78125 3.5 -3.59375 C 3.582031 -3.40625 3.71875 -3.222656 3.90625 -3.046875 C 4.09375 -2.867188 4.335938 -2.71875 4.640625 -2.59375 C 4.941406 -2.46875 5.3125 -2.40625 5.75 -2.40625 C 6.101562 -2.40625 6.414062 -2.445312 6.6875 -2.53125 C 6.957031 -2.625 7.179688 -2.734375 7.359375 -2.859375 C 7.546875 -2.992188 7.6875 -3.144531 7.78125 -3.3125 C 7.875 -3.488281 7.921875 -3.664062 7.921875 -3.84375 C 7.921875 -4.039062 7.851562 -4.226562 7.71875 -4.40625 C 7.59375 -4.582031 7.390625 -4.71875 7.109375 -4.8125 C 6.609375 -4.988281 6.078125 -5.132812 5.515625 -5.25 C 4.960938 -5.375 4.421875 -5.523438 3.890625 -5.703125 C 3.367188 -5.890625 2.878906 -6.132812 2.421875 -6.4375 C 1.972656 -6.738281 1.617188 -7.15625 1.359375 -7.6875 C 1.117188 -8.164062 1 -8.675781 1 -9.21875 C 1 -9.820312 1.140625 -10.40625 1.421875 -10.96875 C 1.703125 -11.53125 2.085938 -12.003906 2.578125 -12.390625 C 3.035156 -12.753906 3.550781 -13.035156 4.125 -13.234375 C 4.707031 -13.429688 5.320312 -13.53125 5.96875 -13.53125 C 6.601562 -13.53125 7.210938 -13.4375 7.796875 -13.25 C 8.378906 -13.0625 8.90625 -12.785156 9.375 -12.421875 C 9.820312 -12.078125 10.175781 -11.679688 10.4375 -11.234375 L 8.296875 -9.765625 C 8.035156 -10.128906 7.707031 -10.421875 7.3125 -10.640625 C 6.914062 -10.859375 6.472656 -10.96875 5.984375 -10.96875 C 5.304688 -10.96875 4.78125 -10.816406 4.40625 -10.515625 C 4.039062 -10.210938 3.859375 -9.816406 3.859375 -9.328125 C 3.859375 -9.109375 3.960938 -8.910156 4.171875 -8.734375 C 4.378906 -8.554688 4.644531 -8.394531 4.96875 -8.25 C 5.300781 -8.113281 5.675781 -7.992188 6.09375 -7.890625 C 6.507812 -7.785156 6.921875 -7.675781 7.328125 -7.5625 C 7.734375 -7.457031 8.117188 -7.347656 8.484375 -7.234375 C 8.847656 -7.128906 9.144531 -7.003906 9.375 -6.859375 Z M 9.375 -6.859375 "/></g></g></g></svg>